<?xml version="1.0" encoding="utf-8"?>
<svg xmlns="http://www.w3.org/2000/svg" viewBox="16.0023 6.8284 472.6155 491.3807" width="472.6155px" height="491.3807px"><g id="object-10"><path fill="#6D9286" d="M 170.683 6.907 C 180.346 6.513 191.047 7.562 200.177 10.943 C 221.218 18.733 240.391 46.581 249.464 66.272 C 254.201 76.555 258.011 88.913 255.28 100.245 C 254.329 104.194 252.633 107.845 251.237 111.642 C 250.445 113.796 249.77 116.199 249.695 118.503 C 249.343 129.418 255.982 148.576 260.588 158.634 C 261.062 152.233 263.356 146.44 265.358 140.386 C 267.934 132.392 270.803 124.507 273.965 116.728 C 277.126 108.948 280.572 101.296 284.302 93.773 C 287.237 87.723 290.02 81.75 293.544 76.004 C 296.399 71.351 301.031 63.555 306.659 62.337 C 310.263 61.556 314.142 62.687 317.163 64.676 C 319.825 66.428 321.95 68.923 324.106 71.238 C 330.317 77.909 338.826 87.377 340.708 96.407 C 345.487 96.483 350.287 96.644 355.054 96.222 C 355.111 96.177 355.169 96.133 355.226 96.089 C 357.667 94.254 359.491 90.978 361.484 88.63 C 366.104 83.183 370.904 78.069 375.799 72.88 C 379.025 69.46 382.072 65.519 386.005 62.873 C 388.495 61.199 391.7 60.005 394.713 60.702 C 407.733 63.714 402.759 95.113 401.226 104.643 C 400.599 108.535 398.927 113.192 399.358 117.121 C 399.938 122.396 406.332 126.127 409.062 130.372 C 414.672 139.096 414.153 150.507 420.543 158.858 C 424.826 164.452 434.156 168.491 436.598 172.846 C 439.468 177.962 437.276 186.711 435.757 191.983 C 429.627 213.254 413.012 228.264 390.753 230.459 C 381.794 231.343 371.541 229.963 363.423 234.535 C 359.32 236.846 356.621 240.67 355.048 245.052 C 347.28 266.694 368.088 282.491 365.523 290.313 C 365.193 291.316 364.447 292.088 363.518 292.564 C 363.346 292.651 363.171 292.729 362.992 292.799 C 362.814 292.868 362.631 292.927 362.447 292.979 C 362.262 293.03 362.075 293.072 361.886 293.106 C 361.698 293.138 361.507 293.162 361.317 293.176 C 361.125 293.19 360.933 293.194 360.742 293.19 C 360.55 293.185 360.359 293.171 360.169 293.147 C 359.978 293.123 359.79 293.09 359.603 293.048 C 359.416 293.005 359.231 292.954 359.05 292.893 C 354.071 291.235 347.685 279.708 345.537 275.094 C 340.319 263.884 339.193 250.97 343.519 239.308 C 345.199 234.779 347.521 231.149 350.9 227.702 C 365.011 213.306 385.179 222.284 402.164 214.303 C 412.019 209.673 418.995 201.41 422.608 191.268 C 419.57 189.891 416.564 188.35 414.083 186.084 C 412.152 184.321 410.324 181.932 410.284 179.209 C 410.253 177.172 411.284 175.454 412.65 174.033 C 413.387 173.364 414.16 172.731 414.916 172.083 C 407.548 164.932 405.168 158.969 402.076 149.403 C 401.047 146.219 400.051 143.065 398.496 140.089 C 389.92 123.684 369.607 111.192 351.388 108.968 C 345.709 108.274 339.371 109.637 333.903 107.863 C 333.795 107.828 333.688 107.791 333.581 107.754 C 330.63 103.135 328.361 98.068 325.31 93.537 C 322.909 89.973 320.333 86.363 317.628 83.025 C 315.378 80.25 312.928 77.655 310.777 74.799 C 296.569 96.104 286.706 119.391 278.66 143.616 C 274.742 155.413 272.004 167.567 268.077 179.346 C 263.328 193.592 256.176 208.783 247.583 221.128 C 240.023 231.99 227.596 244.743 216.907 252.562 C 210.867 256.978 204.775 261.438 198.412 265.378 C 187.568 272.091 176.156 277.545 164.855 283.391 C 157.363 287.267 148.244 292.694 140.328 295.277 C 137.433 296.221 134.818 296.606 131.803 296.139 C 129.353 291.729 128.401 286.891 127.271 282.025 C 123.398 265.349 125.118 248.617 128.304 231.996 C 131.266 216.545 135.063 201.207 132.464 185.375 C 130.43 172.992 123.598 160.977 110.503 158.276 C 104.931 157.126 99.077 158.061 93.448 158.304 C 76.637 159.032 56.414 159.055 42.251 148.744 C 28.881 139.009 22.104 123.366 19.647 107.408 C 18.647 100.917 18.212 93.07 22.854 87.747 C 28.786 80.945 51.419 78.612 60.461 75.729 C 65.664 74.07 71.16 71.364 75.46 68.012 C 85.456 60.22 87.931 48.39 95.321 38.376 C 99.508 32.705 104.509 28.197 110.301 24.221 C 112.629 22.624 114.984 20.986 117.475 19.653 C 133.518 11.062 153.09 9.572 170.683 6.907 Z M 34.468 113.256 C 36.747 121.352 39.744 129.37 46.071 135.227 C 57.692 145.984 74.674 145.726 89.496 145.177 C 93.429 144.419 102.797 144.379 106.697 145.184 C 114.216 145.379 122.465 147.89 128.52 152.38 C 133.125 155.796 136.562 159.985 139.61 164.797 C 144.497 172.51 146.63 181.083 147.174 190.124 C 147.881 201.856 146.365 212.964 144.024 224.452 C 142.318 232.829 140.297 241.125 139.333 249.637 C 138.127 260.301 138.937 269.548 140.456 280.064 C 156.799 272.502 172.95 264.645 188.389 255.342 C 192.445 252.898 196.549 250.48 200.43 247.763 C 204.377 245.002 208.063 241.918 211.801 238.886 C 215.575 235.825 219.55 232.624 222.99 229.192 C 230.284 221.917 237.372 212.381 242.524 203.446 C 245.579 198.072 248.238 192.512 250.503 186.761 C 252.056 182.874 253.39 178.898 255.099 175.075 C 247.252 159.878 241.345 144.738 239.332 127.648 C 230.19 136.996 214.476 146.585 201.475 148.334 C 191.657 149.656 181.852 148.381 173.828 142.222 C 165.935 136.163 162.475 126.973 161.228 117.38 C 160.561 112.244 160.616 106.732 160.925 101.559 C 161.466 92.509 162.95 83.431 164.169 74.45 C 164.957 68.651 165.424 62.645 166.716 56.937 C 167.07 55.377 167.501 53.419 168.541 52.167 C 169.28 51.278 170.486 50.859 171.608 50.769 C 174.116 50.567 176.226 51.654 178.037 53.264 C 180.113 59.835 178.318 67.793 177.275 74.465 C 174.992 89.072 171.21 106.733 175.411 121.147 C 176.989 126.566 180.009 131.6 185.086 134.345 C 190.529 137.288 196.31 137.571 202.182 135.803 C 216.175 131.589 232.331 118.651 239.122 105.691 C 243.663 97.025 243.771 89.59 240.886 80.331 C 239.088 74.563 236.05 69.428 233.046 64.232 C 225.323 50.873 213.955 33.313 200.023 26.073 C 196.458 24.22 192.638 22.601 188.697 21.751 C 173.56 18.488 149.088 22.17 134.256 26.859 C 121.551 30.875 110.465 38.355 103.513 49.894 C 101.047 53.988 99.188 58.464 96.978 62.699 C 94.812 66.846 92.088 70.272 88.865 73.63 C 78.344 84.59 66.804 88.136 52.783 92.583 C 52.485 96.035 51.803 99.674 50.061 102.711 C 46.705 108.553 40.7 111.515 34.468 113.256 Z M 370.19 101.419 C 372.569 102.021 374.762 102.88 376.995 103.89 C 380.598 105.803 384.484 107.675 387.819 110.009 C 387.92 104.625 391.512 82.004 390.77 79.421 C 390.722 79.251 390.537 79.155 390.42 79.021 L 390.105 78.954 C 385.797 83.518 381.387 87.877 377.261 92.626 C 374.783 95.478 372.621 98.555 370.19 101.419 Z" style="" id="object-0"/><path fill="#6D9286" d="M 117.54 65.533 C 117.7 65.525 117.862 65.521 118.024 65.521 C 118.185 65.521 118.346 65.525 118.507 65.532 C 118.667 65.541 118.829 65.553 118.99 65.568 C 119.15 65.583 119.309 65.603 119.469 65.627 C 119.629 65.65 119.788 65.677 119.946 65.709 C 120.104 65.74 120.261 65.775 120.418 65.814 C 120.575 65.853 120.73 65.895 120.885 65.942 C 121.039 65.989 121.192 66.039 121.344 66.093 C 121.496 66.147 121.646 66.205 121.796 66.266 C 121.944 66.328 122.092 66.393 122.238 66.461 C 122.384 66.53 122.528 66.602 122.671 66.678 C 122.813 66.754 122.953 66.833 123.092 66.915 C 123.23 66.998 123.367 67.084 123.501 67.173 C 123.635 67.262 123.768 67.355 123.898 67.451 C 124.028 67.546 124.154 67.645 124.28 67.747 C 124.405 67.849 124.527 67.953 124.647 68.062 C 124.767 68.169 124.883 68.281 124.998 68.394 C 125.112 68.508 125.224 68.625 125.333 68.743 C 125.441 68.863 125.546 68.985 125.65 69.108 C 125.753 69.233 125.853 69.36 125.949 69.488 C 126.045 69.618 126.138 69.749 126.23 69.883 C 126.319 70.017 126.406 70.152 126.489 70.29 C 126.572 70.428 126.652 70.568 126.729 70.71 C 126.807 70.852 126.88 70.996 126.949 71.142 C 127.018 71.287 127.084 71.434 127.147 71.583 C 127.209 71.731 127.268 71.881 127.324 72.033 C 127.378 72.185 127.429 72.337 127.478 72.491 C 127.524 72.645 127.568 72.801 127.608 72.957 C 127.648 73.113 127.685 73.27 127.717 73.428 C 127.749 73.586 127.778 73.745 127.802 73.905 C 127.826 74.064 127.847 74.224 127.864 74.384 C 127.88 74.544 127.893 74.706 127.902 74.867 C 127.911 75.027 127.916 75.188 127.917 75.349 C 127.918 75.511 127.915 75.672 127.909 75.833 C 127.9 75.994 127.89 76.155 127.876 76.316 C 127.861 76.477 127.842 76.637 127.819 76.796 C 127.797 76.956 127.771 77.115 127.74 77.274 C 127.71 77.432 127.675 77.589 127.637 77.746 C 127.598 77.902 127.557 78.058 127.511 78.213 C 127.465 78.368 127.416 78.521 127.363 78.674 C 127.309 78.826 127.253 78.976 127.192 79.126 C 127.131 79.275 127.067 79.423 126.999 79.569 C 126.931 79.716 126.86 79.86 126.785 80.003 C 126.71 80.146 126.631 80.287 126.55 80.426 C 126.468 80.564 126.383 80.701 126.295 80.836 C 126.205 80.971 126.114 81.104 126.019 81.234 C 125.923 81.364 125.826 81.492 125.725 81.618 C 125.623 81.744 125.519 81.866 125.411 81.987 C 125.304 82.107 125.195 82.224 125.081 82.34 C 124.967 82.454 124.852 82.567 124.734 82.676 C 124.615 82.786 124.494 82.892 124.37 82.996 C 124.247 83.099 124.12 83.198 123.992 83.296 C 123.863 83.393 123.733 83.487 123.599 83.579 C 123.465 83.669 123.33 83.757 123.193 83.841 C 123.055 83.925 122.915 84.005 122.775 84.083 C 122.633 84.161 122.49 84.235 122.345 84.305 C 122.199 84.375 122.053 84.442 121.905 84.505 C 121.756 84.568 121.606 84.628 121.455 84.684 C 121.303 84.739 121.151 84.792 120.997 84.84 C 120.843 84.888 120.688 84.933 120.533 84.974 C 120.377 85.015 120.22 85.052 120.062 85.085 C 119.903 85.118 119.745 85.147 119.586 85.172 C 119.427 85.198 119.267 85.22 119.106 85.237 C 118.946 85.254 118.785 85.269 118.625 85.278 C 118.463 85.288 118.3 85.294 118.138 85.295 C 117.976 85.297 117.814 85.295 117.652 85.289 C 117.489 85.283 117.327 85.273 117.165 85.259 C 117.003 85.244 116.842 85.226 116.681 85.204 C 116.52 85.181 116.36 85.155 116.201 85.126 C 116.041 85.095 115.883 85.062 115.724 85.023 C 115.566 84.986 115.41 84.944 115.254 84.899 C 115.098 84.853 114.944 84.803 114.791 84.751 C 114.637 84.697 114.484 84.64 114.334 84.579 C 114.183 84.518 114.034 84.455 113.887 84.387 C 113.739 84.319 113.594 84.247 113.45 84.172 C 113.306 84.097 113.164 84.018 113.025 83.935 C 112.885 83.853 112.747 83.767 112.611 83.679 C 112.475 83.59 112.341 83.497 112.209 83.402 C 112.078 83.306 111.949 83.208 111.823 83.105 C 111.696 83.004 111.573 82.898 111.452 82.791 C 111.33 82.682 111.212 82.572 111.096 82.458 C 110.981 82.344 110.867 82.227 110.758 82.108 C 110.647 81.989 110.541 81.866 110.437 81.742 C 110.333 81.617 110.231 81.49 110.134 81.36 C 110.037 81.231 109.942 81.099 109.851 80.964 C 109.76 80.83 109.672 80.693 109.587 80.555 C 109.501 80.416 109.421 80.276 109.344 80.133 C 109.266 79.991 109.192 79.846 109.122 79.7 C 109.051 79.554 108.984 79.406 108.922 79.256 C 108.858 79.107 108.798 78.956 108.743 78.802 C 108.686 78.65 108.635 78.496 108.587 78.341 C 108.538 78.186 108.495 78.03 108.454 77.873 C 108.414 77.716 108.377 77.557 108.345 77.398 C 108.312 77.239 108.283 77.08 108.259 76.919 C 108.233 76.759 108.212 76.597 108.196 76.436 C 108.178 76.275 108.165 76.113 108.157 75.951 C 108.148 75.788 108.143 75.626 108.142 75.464 C 108.141 75.302 108.144 75.139 108.152 74.977 C 108.158 74.815 108.169 74.653 108.184 74.492 C 108.2 74.329 108.219 74.168 108.242 74.008 C 108.265 73.847 108.292 73.687 108.322 73.527 C 108.353 73.368 108.388 73.21 108.427 73.052 C 108.465 72.894 108.508 72.738 108.555 72.583 C 108.601 72.426 108.651 72.272 108.706 72.119 C 108.759 71.966 108.817 71.814 108.879 71.664 C 108.94 71.514 109.006 71.365 109.075 71.218 C 109.143 71.071 109.215 70.926 109.292 70.782 C 109.367 70.639 109.447 70.497 109.53 70.357 C 109.613 70.218 109.699 70.08 109.788 69.946 C 109.878 69.81 109.971 69.677 110.068 69.546 C 110.163 69.415 110.263 69.287 110.366 69.161 C 110.469 69.035 110.574 68.913 110.683 68.792 C 110.791 68.671 110.903 68.553 111.017 68.438 C 111.132 68.322 111.249 68.21 111.369 68.101 C 111.489 67.992 111.611 67.886 111.737 67.782 C 111.863 67.679 111.99 67.578 112.12 67.481 C 112.25 67.385 112.383 67.29 112.518 67.2 C 112.652 67.11 112.789 67.023 112.928 66.939 C 113.067 66.854 113.208 66.774 113.352 66.697 C 113.494 66.621 113.639 66.547 113.786 66.478 C 113.932 66.408 114.081 66.342 114.231 66.28 C 114.381 66.218 114.532 66.159 114.685 66.104 C 114.837 66.049 114.991 65.998 115.147 65.951 C 115.303 65.903 115.459 65.86 115.617 65.82 C 115.774 65.781 115.932 65.745 116.091 65.713 C 116.251 65.681 116.411 65.653 116.571 65.63 C 116.731 65.605 116.892 65.585 117.054 65.57 C 117.216 65.554 117.378 65.542 117.54 65.533 Z" style="" id="object-1"/><path fill="#6D9286" d="M 73.4 314.898 C 81.1 314.754 88.874 315.06 96.489 316.272 C 110.019 318.425 121.99 325.36 130.048 336.571 C 136.987 346.224 138.692 360.209 136.74 371.72 C 134.189 386.761 127.101 391.612 115.424 399.946 C 118.325 402.16 121.934 403.667 125.123 405.449 C 134.597 410.745 141.381 418.18 144.334 428.81 C 147.803 441.301 147.106 455.326 140.64 466.744 C 133.787 478.848 120.701 486.382 107.646 489.996 C 104.491 491.113 100.525 491.401 97.19 491.784 C 85.588 493.117 73.54 493.222 61.868 492.946 C 57.523 492.844 53.19 492.466 48.845 492.433 C 43.744 492.393 19.948 493.336 16.992 490.614 C 16.305 489.981 16.235 485.241 16.181 484.112 C 15.796 476.039 16.187 467.796 16.188 459.702 L 16.221 409.003 L 16.159 355.163 C 16.121 344.551 15.819 333.85 16.171 323.246 C 16.228 321.519 16.096 318.166 17.286 316.854 C 18.662 316.092 20.305 315.87 21.857 315.725 C 28.583 315.095 35.556 315.46 42.313 315.393 L 73.4 314.898 Z M 50.882 415.691 C 51.402 422.594 50.823 429.755 50.866 436.701 L 51.044 454.846 C 51.077 457.701 51.265 460.618 51.138 463.464 C 57.274 463.784 63.476 463.626 69.619 463.631 C 77.467 463.638 86.125 464.198 93.825 462.542 C 96.916 461.878 99.669 460.57 102.445 459.105 C 107.312 455.878 110.366 451.356 111.531 445.612 C 112.835 439.19 111.78 430.857 108.108 425.327 C 104.562 419.986 98.814 417.336 92.675 416.143 C 85.404 414.73 77.207 415.083 69.8 415.047 C 65.374 415.026 60.704 414.819 56.303 415.248 C 54.498 415.383 52.677 415.474 50.882 415.691 Z M 51.113 343.964 C 51.012 349.624 50.706 355.279 50.65 360.939 C 50.608 365.146 50.849 369.37 50.957 373.576 C 51.081 378.396 51.09 383.202 51.387 388.018 C 63.736 388.217 81.763 390.153 92.769 383.735 C 97.39 380.975 100.909 377.251 102.245 371.935 C 103.716 366.082 102.983 358.446 99.786 353.247 C 97.005 348.724 91.728 345.928 86.675 344.77 C 79.689 343.168 63.458 343.412 56.054 343.773 C 54.408 343.86 52.761 343.924 51.113 343.964 Z" style="" id="object-2"/><path fill="#6D9286" d="M 412.643 358.821 C 413.784 358.72 414.928 358.648 416.074 358.603 C 417.218 358.559 418.364 358.541 419.51 358.554 C 420.656 358.566 421.802 358.605 422.946 358.674 C 424.09 358.742 425.231 358.839 426.371 358.963 C 427.511 359.087 428.646 359.24 429.778 359.42 C 430.91 359.601 432.036 359.809 433.159 360.045 C 434.28 360.28 435.395 360.544 436.504 360.835 C 437.612 361.125 438.713 361.443 439.806 361.789 C 440.899 362.133 441.983 362.505 443.058 362.903 C 444.132 363.301 445.197 363.726 446.251 364.177 C 447.305 364.627 448.347 365.104 449.377 365.607 C 450.407 366.108 451.425 366.635 452.429 367.187 C 453.433 367.739 454.424 368.316 455.4 368.917 C 456.375 369.518 457.336 370.143 458.282 370.792 C 459.227 371.439 460.156 372.111 461.068 372.804 C 461.981 373.497 462.875 374.214 463.752 374.952 C 464.628 375.69 465.487 376.45 466.327 377.23 C 467.166 378.01 467.986 378.81 468.787 379.631 C 469.586 380.451 470.366 381.291 471.124 382.151 C 471.883 383.009 472.621 383.886 473.337 384.782 C 474.051 385.678 474.745 386.59 475.416 387.52 C 476.086 388.448 476.733 389.394 477.357 390.355 C 477.982 391.317 478.582 392.293 479.158 393.284 C 479.734 394.275 480.285 395.28 480.813 396.297 C 481.339 397.315 481.84 398.346 482.316 399.389 C 482.792 400.431 483.242 401.485 483.666 402.551 C 484.089 403.615 484.487 404.69 484.858 405.775 C 485.229 406.859 485.573 407.951 485.89 409.053 C 486.207 410.155 486.497 411.263 486.76 412.379 C 487.022 413.494 487.258 414.615 487.465 415.743 C 487.672 416.87 487.852 418.002 488.004 419.138 C 488.156 420.274 488.279 421.413 488.375 422.556 C 488.47 423.697 488.537 424.842 488.578 425.987 C 488.616 427.132 488.627 428.278 488.61 429.424 C 488.593 430.57 488.547 431.716 488.474 432.859 C 488.4 434.003 488.299 435.143 488.169 436.283 C 488.039 437.421 487.881 438.556 487.697 439.687 C 487.51 440.819 487.297 441.944 487.057 443.065 C 486.816 444.186 486.547 445.3 486.251 446.407 C 485.955 447.514 485.631 448.613 485.282 449.705 C 484.932 450.796 484.556 451.879 484.152 452.951 C 483.749 454.024 483.319 455.086 482.864 456.139 C 482.407 457.19 481.927 458.23 481.42 459.258 C 480.913 460.286 480.381 461.301 479.824 462.303 C 479.267 463.305 478.686 464.292 478.081 465.265 C 477.475 466.239 476.847 467.196 476.194 468.138 C 475.541 469.08 474.865 470.006 474.168 470.915 C 473.469 471.824 472.75 472.715 472.008 473.589 C 471.265 474.463 470.502 475.317 469.718 476.153 C 468.934 476.988 468.13 477.805 467.305 478.602 C 466.48 479.398 465.637 480.174 464.775 480.929 C 463.912 481.683 463.032 482.416 462.134 483.128 C 461.235 483.839 460.319 484.527 459.386 485.194 C 458.454 485.86 457.506 486.503 456.542 487.123 C 455.576 487.743 454.598 488.338 453.604 488.91 C 452.611 489.482 451.604 490.028 450.584 490.55 C 449.563 491.071 448.53 491.568 447.486 492.04 C 446.441 492.51 445.384 492.955 444.318 493.375 C 443.251 493.793 442.175 494.186 441.089 494.553 C 440.002 494.918 438.908 495.257 437.805 495.57 C 436.702 495.882 435.593 496.167 434.476 496.424 C 433.358 496.682 432.236 496.911 431.109 497.114 C 429.979 497.316 428.847 497.49 427.71 497.637 C 426.574 497.783 425.434 497.9 424.292 497.992 C 423.155 498.081 422.018 498.143 420.879 498.177 C 419.74 498.212 418.601 498.218 417.462 498.197 C 416.323 498.174 415.184 498.125 414.048 498.047 C 412.91 497.97 411.777 497.865 410.645 497.732 C 409.513 497.599 408.386 497.439 407.262 497.252 C 406.138 497.063 405.02 496.847 403.907 496.605 C 402.793 496.361 401.686 496.092 400.586 495.795 C 399.485 495.498 398.393 495.174 397.31 494.824 C 396.225 494.473 395.15 494.097 394.085 493.693 C 393.018 493.29 391.964 492.861 390.919 492.407 C 389.874 491.951 388.841 491.471 387.82 490.966 C 386.798 490.461 385.79 489.931 384.795 489.376 C 383.799 488.821 382.819 488.243 381.852 487.641 C 380.884 487.037 379.932 486.411 378.997 485.762 C 378.06 485.113 377.139 484.441 376.237 483.746 C 375.333 483.052 374.447 482.336 373.579 481.598 C 372.71 480.86 371.86 480.102 371.029 479.323 C 370.198 478.543 369.387 477.745 368.594 476.925 C 367.801 476.106 367.029 475.268 366.279 474.412 C 365.528 473.554 364.798 472.679 364.09 471.787 C 363.382 470.895 362.695 469.986 362.032 469.06 C 361.368 468.133 360.728 467.192 360.11 466.235 C 359.492 465.276 358.898 464.304 358.328 463.318 C 357.758 462.331 357.213 461.332 356.691 460.318 C 356.17 459.304 355.674 458.279 355.203 457.242 C 354.732 456.204 354.287 455.155 353.867 454.097 C 353.447 453.036 353.054 451.968 352.687 450.889 C 352.319 449.81 351.978 448.724 351.665 447.629 C 351.351 446.533 351.063 445.431 350.803 444.322 C 350.543 443.212 350.309 442.097 350.105 440.976 C 349.899 439.855 349.72 438.73 349.57 437.601 C 349.42 436.472 349.298 435.339 349.202 434.204 C 349.107 433.068 349.039 431.931 349.001 430.792 C 348.961 429.652 348.95 428.514 348.966 427.375 C 348.982 426.236 349.026 425.097 349.099 423.961 C 349.171 422.823 349.271 421.688 349.399 420.556 C 349.527 419.424 349.682 418.296 349.864 417.171 C 350.047 416.046 350.258 414.927 350.495 413.812 C 350.732 412.697 350.998 411.589 351.29 410.488 C 351.582 409.387 351.9 408.293 352.246 407.207 C 352.591 406.122 352.963 405.045 353.361 403.977 C 353.759 402.91 354.183 401.852 354.633 400.806 C 355.084 399.759 355.559 398.724 356.06 397.701 C 356.56 396.677 357.085 395.666 357.635 394.668 C 358.185 393.671 358.76 392.686 359.358 391.717 C 359.956 390.747 360.577 389.792 361.223 388.853 C 361.868 387.913 362.535 386.991 363.226 386.084 C 363.915 385.177 364.628 384.288 365.362 383.417 C 366.095 382.545 366.849 381.691 367.625 380.857 C 368.4 380.021 369.196 379.205 370.011 378.41 C 370.826 377.614 371.661 376.838 372.514 376.084 C 373.368 375.328 374.239 374.594 375.128 373.883 C 376.017 373.17 376.923 372.48 377.847 371.811 C 378.77 371.143 379.708 370.499 380.663 369.876 C 381.617 369.254 382.587 368.655 383.571 368.082 C 384.555 367.507 385.552 366.956 386.563 366.431 C 387.574 365.905 388.597 365.404 389.633 364.929 C 390.668 364.452 391.714 364.002 392.772 363.578 C 393.829 363.153 394.897 362.755 395.973 362.383 C 397.05 362.01 398.135 361.664 399.23 361.346 C 400.323 361.026 401.424 360.734 402.533 360.469 C 403.64 360.203 404.754 359.966 405.874 359.755 C 406.994 359.544 408.118 359.361 409.247 359.206 C 410.376 359.049 411.507 358.921 412.643 358.821 Z M 414.988 465.256 C 418.525 468.628 423.054 472.881 428.306 472.734 C 432.228 472.626 436.257 470.286 438.83 467.413 C 442.283 463.557 443.88 458.594 443.528 453.459 C 442.866 443.777 436.721 427.751 429.215 421.395 C 426.237 418.874 420.99 416.927 417.072 417.395 C 416.941 417.41 416.812 417.432 416.682 417.45 C 406.026 420.102 388.597 427.806 382.902 437.399 C 380.311 441.763 379.424 446.787 380.723 451.733 C 381.52 454.763 383.241 457.204 385.961 458.8 C 395.069 464.141 405.906 456.75 414.988 465.256 Z M 417.762 409.351 C 422.025 407.497 425.178 405.184 426.939 400.719 C 429.117 395.198 428.766 388.356 426.351 382.968 C 425.007 379.968 422.656 376.962 419.442 375.879 C 418.472 375.553 417.339 375.498 416.322 375.39 C 413.023 376.149 410.34 378.756 408.595 381.577 C 405.296 386.909 404.726 394.45 406.152 400.456 C 406.871 403.487 408.38 406.886 411.096 408.609 C 412.722 409.641 414.963 410.077 416.846 409.616 C 417.155 409.54 417.458 409.447 417.762 409.351 Z M 443.317 419.79 C 448.32 418.535 452.867 414.843 455.51 410.455 C 458.004 406.312 459.933 400.407 458.724 395.574 C 458.186 393.418 457.024 391.515 455.036 390.435 C 453.543 389.623 451.384 389.19 449.679 389.363 C 444.839 390.024 441.078 392.38 438.112 396.258 C 434.823 400.557 432.318 406.7 433.048 412.199 C 433.361 414.561 434.472 416.792 436.446 418.191 C 438.59 419.709 440.812 419.728 443.317 419.79 Z M 389.265 419.979 C 392.358 418.85 395.09 416.786 396.494 413.73 C 398.71 408.912 397.828 402.885 395.925 398.121 C 394.691 395.031 392.789 392.127 389.642 390.728 C 387.93 389.965 386.269 389.884 384.441 390.053 C 381.479 390.807 379.438 392.331 377.876 394.984 C 375.578 398.887 375.339 403.679 376.525 407.973 C 377.704 412.244 380.216 416.317 384.173 418.509 C 385.787 419.404 387.436 419.834 389.265 419.979 Z M 458.299 444.472 C 463.058 443.646 467.655 440.294 470.432 436.376 C 472.463 433.513 474.369 429.395 473.792 425.814 C 473.4 423.378 471.935 421.421 470.096 419.856 C 467.869 419.47 465.929 419.194 463.666 419.53 C 458.966 420.199 454.75 423.329 451.918 427.051 C 449.707 429.956 447.603 434.039 448.058 437.781 C 448.279 439.599 449.126 441.279 450.582 442.414 C 452.498 443.907 455.868 444.665 458.299 444.472 Z" style="" id="object-3"/><path fill="#6D9286" d="M 282.687 404.355 C 285.624 401.562 287.779 397.428 289.916 394.001 C 292.634 389.721 295.309 385.414 297.942 381.081 C 299.984 377.735 301.949 374.253 304.272 371.095 C 307.005 367.383 309.716 365.474 314.341 364.823 C 318.754 364.203 339.072 363.444 341.642 365.848 C 343.225 367.328 341.704 370.382 340.905 371.941 C 338.668 376.311 334.901 380.205 331.982 384.171 C 326.154 392.092 320.633 400.214 314.866 408.175 C 311.029 413.471 306.833 418.531 303.273 424.023 C 302.679 424.94 301.628 426.41 301.624 427.521 C 301.612 430.772 310.576 440.478 312.669 443.199 C 316.764 448.525 320.621 454.043 324.741 459.347 C 329.289 465.201 333.764 471.044 338.054 477.095 C 340.079 479.949 342.233 482.81 343.957 485.856 C 344.632 487.051 345.464 488.671 345.466 490.056 C 345.466 490.409 345.42 490.916 345.143 491.156 C 344.245 491.939 341.959 492.075 340.772 492.186 C 336.704 492.564 332.534 492.341 328.447 492.413 C 325.231 492.469 321.897 492.841 318.703 492.526 C 315.789 492.388 312.995 491.687 310.62 489.919 C 305.141 485.841 300.95 477.818 297.221 472.134 L 288.753 459.405 C 286.928 456.671 284.736 452.889 281.935 451.117 C 277.866 451.192 262.133 487.06 250.049 491.498 C 246.911 492.651 227.755 493.002 223.767 492.613 C 222.499 492.491 221.204 492.231 220.055 491.664 C 219.483 491.383 219.306 491.137 219.13 490.527 C 218.732 489.154 219.551 487.172 220.168 485.978 C 222.384 481.692 225.66 477.621 228.424 473.659 C 239.481 457.807 252.394 443.212 263.031 427.071 C 257.544 417.844 250.717 409.18 244.345 400.545 C 240.693 395.598 222.891 373.303 222.147 368.346 C 222.024 367.532 222.338 366.463 222.87 365.832 C 224.62 363.76 240.425 364.735 244.052 364.588 C 247.724 364.316 251.968 364.049 255.354 365.768 C 261.368 368.822 270.587 386.658 274.281 392.946 C 276.664 397.002 278.844 401.489 282.687 404.355 Z" style="" id="object-4"/><path fill="#6D9286" d="M 173.604 364.81 C 179.039 364.619 192.745 363.88 197.559 365.717 C 198.682 366.146 199.196 366.787 199.649 367.895 C 200.573 370.157 200.618 373.21 200.654 375.621 C 200.72 380.048 200.128 384.473 200.105 388.907 L 200.073 439.536 C 200.077 449.022 199.919 458.544 200.146 468.024 C 200.256 472.606 200.903 477.144 200.783 481.737 C 200.696 485.037 200.488 488.191 199.138 491.237 C 197.363 491.967 195.733 492.187 193.841 492.368 C 188.811 492.552 172.292 493.86 168.569 491.16 C 167.402 489.405 167.534 486.195 167.448 484.147 C 166.557 462.928 167.471 441.692 167.54 420.465 L 167.571 388.981 C 167.536 383.976 167.09 378.95 167.302 373.95 C 167.394 371.779 167.248 367.811 168.845 366.206 C 170.104 364.941 171.936 364.878 173.604 364.81 Z" style="" id="object-5"/><path fill="#6D9286" d="M 182.397 313.746 C 182.712 313.724 183.028 313.709 183.345 313.703 C 183.661 313.696 183.977 313.697 184.294 313.705 C 184.61 313.713 184.925 313.73 185.241 313.754 C 185.556 313.778 185.871 313.809 186.186 313.849 C 186.499 313.887 186.811 313.935 187.123 313.99 C 187.435 314.044 187.745 314.106 188.054 314.176 C 188.362 314.246 188.668 314.323 188.974 314.408 C 189.278 314.494 189.581 314.586 189.882 314.685 C 190.182 314.785 190.479 314.891 190.774 315.006 C 191.069 315.119 191.361 315.241 191.651 315.37 C 191.94 315.497 192.226 315.633 192.509 315.775 C 192.791 315.917 193.069 316.066 193.345 316.222 C 193.62 316.378 193.892 316.541 194.159 316.711 C 194.426 316.879 194.689 317.055 194.948 317.237 C 195.207 317.419 195.461 317.607 195.71 317.802 C 195.96 317.996 196.204 318.196 196.444 318.403 C 196.684 318.61 196.919 318.822 197.148 319.04 C 197.377 319.258 197.601 319.481 197.82 319.71 C 198.038 319.939 198.251 320.173 198.459 320.412 C 198.666 320.651 198.867 320.895 199.062 321.144 C 199.257 321.393 199.445 321.646 199.629 321.905 C 199.811 322.163 199.987 322.426 200.157 322.692 C 200.327 322.959 200.491 323.23 200.648 323.506 C 200.804 323.78 200.953 324.059 201.097 324.341 C 201.24 324.623 201.376 324.909 201.506 325.198 C 201.634 325.486 201.756 325.778 201.872 326.073 C 201.986 326.367 202.094 326.665 202.194 326.965 C 202.294 327.265 202.388 327.567 202.474 327.872 C 202.559 328.176 202.637 328.482 202.708 328.792 C 202.778 329.1 202.841 329.409 202.896 329.721 C 202.951 330.033 203 330.345 203.04 330.659 C 203.08 330.972 203.112 331.287 203.138 331.603 C 203.162 331.918 203.179 332.235 203.189 332.551 C 203.199 332.866 203.201 333.183 203.195 333.5 C 203.188 333.816 203.174 334.131 203.153 334.448 C 203.131 334.763 203.102 335.077 203.066 335.392 C 203.028 335.706 202.984 336.019 202.932 336.331 C 202.879 336.644 202.819 336.954 202.753 337.263 C 202.685 337.572 202.61 337.88 202.528 338.185 C 202.445 338.49 202.356 338.793 202.259 339.095 C 202.161 339.395 202.057 339.694 201.946 339.99 C 201.834 340.286 201.714 340.579 201.589 340.87 C 201.463 341.16 201.329 341.447 201.189 341.731 C 201.049 342.014 200.902 342.294 200.749 342.572 C 200.595 342.847 200.434 343.12 200.268 343.389 C 200.1 343.657 199.927 343.922 199.747 344.183 C 199.566 344.442 199.381 344.698 199.188 344.949 C 198.995 345.2 198.798 345.447 198.593 345.688 C 198.388 345.929 198.177 346.166 197.962 346.397 C 197.745 346.628 197.524 346.853 197.297 347.074 C 197.07 347.294 196.838 347.509 196.601 347.718 C 196.362 347.927 196.12 348.129 195.873 348.327 C 195.625 348.524 195.373 348.714 195.116 348.9 C 194.859 349.084 194.598 349.263 194.333 349.435 C 194.067 349.607 193.797 349.772 193.525 349.931 C 193.251 350.089 192.973 350.241 192.692 350.387 C 192.41 350.532 192.127 350.671 191.839 350.803 C 191.551 350.934 191.261 351.058 190.967 351.176 C 190.673 351.293 190.376 351.402 190.077 351.505 C 189.778 351.608 189.476 351.703 189.172 351.791 C 188.868 351.88 188.562 351.961 188.255 352.034 C 187.947 352.107 187.636 352.172 187.326 352.229 C 187.015 352.287 186.703 352.338 186.389 352.38 C 186.075 352.423 185.761 352.458 185.446 352.486 C 185.128 352.513 184.809 352.532 184.489 352.545 C 184.17 352.557 183.851 352.561 183.531 352.557 C 183.211 352.553 182.892 352.541 182.573 352.521 C 182.254 352.501 181.936 352.474 181.618 352.439 C 181.3 352.404 180.984 352.36 180.668 352.309 C 180.353 352.259 180.039 352.2 179.726 352.133 C 179.414 352.066 179.103 351.992 178.794 351.911 C 178.484 351.829 178.178 351.74 177.874 351.643 C 177.569 351.546 177.267 351.442 176.968 351.33 C 176.668 351.218 176.372 351.098 176.079 350.972 C 175.785 350.845 175.495 350.712 175.208 350.572 C 174.921 350.43 174.638 350.282 174.358 350.128 C 174.078 349.973 173.803 349.811 173.531 349.643 C 173.259 349.475 172.992 349.299 172.729 349.118 C 172.465 348.936 172.208 348.749 171.954 348.554 C 171.7 348.36 171.451 348.16 171.207 347.953 C 170.964 347.746 170.725 347.533 170.491 347.315 C 170.258 347.096 170.03 346.873 169.808 346.644 C 169.585 346.414 169.369 346.179 169.158 345.939 C 168.947 345.698 168.744 345.453 168.545 345.202 C 168.346 344.952 168.154 344.697 167.968 344.437 C 167.781 344.178 167.602 343.913 167.43 343.644 C 167.256 343.376 167.09 343.103 166.931 342.826 C 166.771 342.548 166.619 342.267 166.473 341.984 C 166.327 341.699 166.189 341.411 166.057 341.12 C 165.925 340.828 165.801 340.534 165.685 340.237 C 165.567 339.939 165.458 339.639 165.356 339.336 C 165.253 339.033 165.159 338.728 165.073 338.421 C 164.985 338.113 164.905 337.804 164.834 337.492 C 164.761 337.18 164.697 336.868 164.642 336.554 C 164.585 336.238 164.536 335.922 164.496 335.606 C 164.455 335.288 164.422 334.971 164.397 334.653 C 164.372 334.334 164.355 334.015 164.346 333.696 C 164.335 333.375 164.334 333.056 164.342 332.737 C 164.348 332.417 164.362 332.098 164.384 331.779 C 164.406 331.46 164.436 331.142 164.474 330.825 C 164.512 330.507 164.557 330.191 164.611 329.876 C 164.664 329.561 164.726 329.248 164.795 328.936 C 164.864 328.623 164.94 328.313 165.025 328.005 C 165.109 327.697 165.201 327.391 165.301 327.087 C 165.4 326.783 165.506 326.482 165.621 326.184 C 165.735 325.885 165.856 325.59 165.985 325.298 C 166.114 325.005 166.25 324.716 166.394 324.43 C 166.535 324.144 166.686 323.861 166.844 323.584 C 167 323.305 167.164 323.03 167.334 322.76 C 167.505 322.491 167.681 322.225 167.866 321.963 C 168.049 321.702 168.239 321.444 168.435 321.192 C 168.632 320.94 168.834 320.692 169.043 320.451 C 169.252 320.209 169.465 319.971 169.686 319.74 C 169.906 319.508 170.133 319.282 170.364 319.062 C 170.595 318.841 170.831 318.627 171.073 318.418 C 171.315 318.209 171.562 318.006 171.814 317.81 C 172.066 317.613 172.322 317.423 172.584 317.239 C 172.846 317.055 173.111 316.877 173.382 316.707 C 173.652 316.535 173.925 316.371 174.204 316.215 C 174.482 316.057 174.764 315.907 175.05 315.764 C 175.336 315.62 175.624 315.484 175.916 315.355 C 176.208 315.226 176.504 315.103 176.803 314.989 C 177.101 314.874 177.402 314.767 177.706 314.668 C 178.009 314.568 178.315 314.475 178.623 314.391 C 178.932 314.306 179.242 314.229 179.554 314.16 C 179.865 314.091 180.179 314.029 180.494 313.976 C 180.808 313.922 181.124 313.876 181.443 313.838 C 181.759 313.799 182.077 313.769 182.397 313.746 Z" style="" id="object-6"/><path fill="#6D9286" d="M 314.564 176.445 C 320.934 176.082 327.393 177.544 333.663 178.518 C 337.669 179.14 341.702 179.589 345.72 180.122 C 349.722 180.653 363.231 181.988 365.389 185.084 C 365.981 185.933 366.056 186.929 365.813 187.915 C 365.385 189.653 364.29 190.707 362.814 191.612 C 360.844 192.053 358.493 191.644 356.509 191.41 C 350.466 190.699 344.452 189.29 338.427 188.365 C 331.737 187.337 324.692 186.777 318.105 185.275 C 316.154 184.83 313.514 184.381 312.427 182.497 C 311.809 181.43 311.799 180.132 312.188 178.985 C 312.624 177.703 313.397 177.058 314.564 176.445 Z" style="" id="object-7"/><path fill="#6D9286" d="M 359.592 198.514 C 360.986 198.417 361.974 198.416 363.184 199.178 C 364.257 199.853 365.209 200.91 365.42 202.197 C 365.596 203.267 365.214 204.318 364.542 205.149 C 363.68 206.217 362.365 206.732 361.08 207.09 C 355.919 208.534 348.282 209.156 342.866 209.864 C 336.227 210.732 329.615 211.854 322.967 212.632 C 321.344 212.881 319.87 213.165 318.375 212.265 C 317.536 211.761 317.055 210.952 316.858 210.007 C 316.577 208.661 316.897 207.137 317.682 206.009 C 318.23 205.221 318.931 204.729 319.852 204.472 C 324.378 203.205 329.558 203.047 334.236 202.411 C 342.706 201.224 351.157 199.926 359.592 198.514 Z" style="" id="object-8"/><path fill="#6D9286" d="M 375.536 148.164 C 375.69 148.153 375.845 148.148 376 148.146 C 376.154 148.144 376.309 148.145 376.464 148.151 C 376.618 148.157 376.773 148.166 376.929 148.18 C 377.083 148.192 377.236 148.209 377.39 148.231 C 377.543 148.251 377.696 148.275 377.849 148.304 C 378.001 148.331 378.152 148.362 378.303 148.399 C 378.453 148.433 378.603 148.473 378.753 148.516 C 378.901 148.559 379.049 148.605 379.196 148.655 C 379.342 148.705 379.488 148.759 379.632 148.816 C 379.776 148.872 379.918 148.933 380.06 148.997 C 380.2 149.061 380.34 149.129 380.478 149.2 C 380.616 149.271 380.752 149.345 380.887 149.422 C 381.02 149.499 381.152 149.58 381.283 149.664 C 381.413 149.747 381.54 149.834 381.667 149.926 C 381.793 150.015 381.917 150.108 382.038 150.204 C 382.159 150.301 382.277 150.4 382.395 150.503 C 382.511 150.604 382.625 150.708 382.737 150.817 C 382.848 150.924 382.957 151.034 383.063 151.147 C 383.169 151.26 383.272 151.375 383.373 151.493 C 383.474 151.611 383.571 151.731 383.665 151.854 C 383.76 151.977 383.851 152.101 383.94 152.229 C 384.028 152.356 384.114 152.485 384.197 152.616 C 384.279 152.747 384.358 152.88 384.434 153.016 C 384.509 153.151 384.582 153.288 384.651 153.427 C 384.72 153.565 384.785 153.706 384.848 153.848 C 384.909 153.99 384.968 154.133 385.024 154.278 C 385.079 154.422 385.129 154.568 385.178 154.716 C 385.226 154.863 385.27 155.011 385.312 155.161 C 385.352 155.31 385.389 155.46 385.423 155.612 C 385.456 155.762 385.486 155.914 385.513 156.067 C 385.539 156.22 385.561 156.374 385.58 156.528 C 385.598 156.681 385.613 156.835 385.624 156.99 C 385.634 157.144 385.642 157.299 385.646 157.454 C 385.649 157.608 385.649 157.764 385.645 157.919 C 385.641 158.073 385.633 158.228 385.622 158.383 C 385.61 158.537 385.595 158.691 385.576 158.845 C 385.556 158.998 385.534 159.152 385.508 159.305 C 385.481 159.457 385.451 159.609 385.417 159.761 C 385.383 159.911 385.344 160.061 385.304 160.211 C 385.262 160.36 385.218 160.508 385.169 160.656 C 385.12 160.803 385.069 160.949 385.013 161.093 C 384.957 161.237 384.898 161.381 384.835 161.523 C 384.773 161.665 384.707 161.805 384.638 161.944 C 384.568 162.081 384.495 162.217 384.419 162.353 C 384.343 162.488 384.264 162.621 384.181 162.753 C 384.098 162.883 384.012 163.012 383.924 163.139 C 383.835 163.266 383.742 163.39 383.648 163.513 C 383.553 163.635 383.455 163.755 383.354 163.873 C 383.253 163.991 383.149 164.105 383.043 164.219 C 382.936 164.33 382.827 164.441 382.715 164.548 C 382.604 164.656 382.489 164.76 382.373 164.861 C 382.255 164.963 382.137 165.061 382.015 165.157 C 381.893 165.253 381.769 165.346 381.643 165.436 C 381.516 165.525 381.387 165.613 381.258 165.696 C 381.127 165.779 380.994 165.86 380.86 165.937 C 380.725 166.014 380.589 166.087 380.452 166.158 C 380.314 166.228 380.174 166.295 380.033 166.359 C 379.891 166.422 379.748 166.483 379.604 166.539 C 379.46 166.596 379.314 166.649 379.168 166.698 C 379.021 166.747 378.873 166.794 378.724 166.836 C 378.575 166.879 378.425 166.917 378.274 166.952 C 378.123 166.986 377.972 167.018 377.82 167.046 C 377.667 167.074 377.513 167.098 377.36 167.118 C 377.206 167.137 377.052 167.154 376.898 167.167 C 376.742 167.179 376.585 167.188 376.429 167.193 C 376.272 167.198 376.114 167.199 375.958 167.197 C 375.801 167.194 375.644 167.187 375.488 167.177 C 375.331 167.167 375.175 167.153 375.019 167.134 C 374.863 167.116 374.707 167.094 374.553 167.069 C 374.398 167.042 374.244 167.013 374.091 166.979 C 373.938 166.946 373.786 166.908 373.635 166.868 C 373.483 166.826 373.332 166.782 373.183 166.734 C 373.033 166.685 372.885 166.633 372.739 166.578 C 372.592 166.521 372.447 166.462 372.303 166.399 C 372.159 166.337 372.018 166.27 371.878 166.201 C 371.737 166.13 371.598 166.057 371.462 165.981 C 371.324 165.904 371.189 165.824 371.057 165.74 C 370.924 165.656 370.793 165.569 370.665 165.48 C 370.536 165.39 370.41 165.296 370.286 165.201 C 370.162 165.105 370.041 165.005 369.922 164.904 C 369.802 164.802 369.686 164.696 369.572 164.589 C 369.458 164.48 369.346 164.37 369.239 164.257 C 369.129 164.144 369.024 164.027 368.921 163.908 C 368.818 163.79 368.719 163.669 368.622 163.545 C 368.525 163.422 368.432 163.296 368.341 163.168 C 368.25 163.04 368.163 162.909 368.08 162.777 C 367.996 162.644 367.915 162.509 367.837 162.373 C 367.76 162.238 367.686 162.099 367.615 161.959 C 367.545 161.819 367.478 161.677 367.415 161.534 C 367.35 161.39 367.29 161.245 367.234 161.099 C 367.177 160.952 367.125 160.804 367.076 160.656 C 367.026 160.506 366.981 160.356 366.939 160.206 C 366.898 160.054 366.86 159.902 366.826 159.749 C 366.791 159.596 366.761 159.441 366.734 159.287 C 366.708 159.132 366.685 158.977 366.667 158.822 C 366.647 158.666 366.632 158.51 366.621 158.354 C 366.609 158.196 366.602 158.039 366.599 157.883 C 366.595 157.726 366.596 157.569 366.6 157.413 C 366.604 157.256 366.612 157.1 366.624 156.943 C 366.636 156.786 366.651 156.63 366.672 156.475 C 366.691 156.319 366.714 156.164 366.743 156.01 C 366.769 155.856 366.8 155.701 366.836 155.548 C 366.87 155.395 366.91 155.243 366.952 155.093 C 366.995 154.941 367.041 154.791 367.09 154.643 C 367.14 154.494 367.194 154.347 367.252 154.201 C 367.308 154.055 367.368 153.91 367.433 153.767 C 367.498 153.623 367.566 153.482 367.637 153.342 C 367.708 153.202 367.783 153.064 367.861 152.929 C 367.939 152.793 368.02 152.659 368.105 152.527 C 368.19 152.394 368.278 152.265 368.369 152.137 C 368.46 152.009 368.554 151.883 368.652 151.761 C 368.749 151.637 368.849 151.517 368.953 151.4 C 369.056 151.281 369.162 151.166 369.271 151.053 C 369.381 150.939 369.492 150.83 369.607 150.723 C 369.72 150.615 369.838 150.511 369.957 150.409 C 370.077 150.308 370.199 150.21 370.323 150.114 C 370.447 150.018 370.574 149.926 370.704 149.836 C 370.832 149.747 370.963 149.661 371.097 149.579 C 371.231 149.496 371.366 149.416 371.504 149.341 C 371.64 149.264 371.779 149.192 371.92 149.123 C 372.06 149.053 372.203 148.987 372.348 148.925 C 372.492 148.862 372.637 148.804 372.784 148.75 C 372.93 148.695 373.079 148.643 373.229 148.596 C 373.378 148.548 373.528 148.504 373.68 148.464 C 373.832 148.423 373.984 148.387 374.138 148.354 C 374.292 148.322 374.446 148.292 374.601 148.268 C 374.755 148.243 374.911 148.221 375.067 148.204 C 375.222 148.186 375.378 148.173 375.536 148.164 Z" style="" id="object-9"/></g></svg>